<svg id="Calque_1" data-name="Calque 1" xmlns="http://www.w3.org/2000/svg" viewBox="0 0 206.73 105.92"><defs><style>.cls-1{fill:#fff;}</style></defs><path class="cls-1" d="M80.78,7.28a15.8,15.8,0,0,1-12.4,6H46a15,15,0,0,0-15,15h3.53A11.49,11.49,0,0,1,46,16.77H68.38A19.29,19.29,0,0,0,83.53,9.49a15.8,15.8,0,0,1,12.4-6h7.41V0H95.93A19.29,19.29,0,0,0,80.78,7.28Z"/><path class="cls-1" d="M160.77,13.24H138.35a15.8,15.8,0,0,1-12.4-6A19.29,19.29,0,0,0,110.8,0h-7.41V3.53h7.41a15.76,15.76,0,0,1,12.39,6,19.32,19.32,0,0,0,15.16,7.28h22.42a11.48,11.48,0,0,1,11.47,11.48h3.54A15,15,0,0,0,160.77,13.24Z"/><path class="cls-1" d="M63.35,16.77H52.85a6.84,6.84,0,1,1,0-13.68h10.5a6.84,6.84,0,0,1,0,13.68ZM52.85,6.62a3.31,3.31,0,0,0,0,6.62h10.5a3.31,3.31,0,0,0,0-6.62Z"/><path class="cls-1" d="M170.16,105.92H36.57A5.63,5.63,0,0,1,31,100.3V89.52h3.53V100.3a2.09,2.09,0,0,0,2.09,2.08H170.16a2.08,2.08,0,0,0,2.08-2.08V89.52h3.54V100.3A5.64,5.64,0,0,1,170.16,105.92Z"/><path class="cls-1" d="M0,68.26V34.21H14.43a9.58,9.58,0,0,1,4.34,1,11.14,11.14,0,0,1,3.43,2.59,12.3,12.3,0,0,1,2.26,3.64,11,11,0,0,1,.81,4.1,12,12,0,0,1-2.92,7.82A10.74,10.74,0,0,1,19,55.89a9.71,9.71,0,0,1-4.32,1h-8V68.26ZM6.62,51.05h7.67a3.82,3.82,0,0,0,3.05-1.49,6.17,6.17,0,0,0,1.22-4,6.58,6.58,0,0,0-.39-2.33,5.72,5.72,0,0,0-1-1.75,4.16,4.16,0,0,0-1.47-1.07A4.26,4.26,0,0,0,14,40H6.62Z"/><path class="cls-1" d="M68.09,34.21V68.26H61.52V53.73H46.08V68.26H39.46V34.21h6.62V48H61.52V34.21Z"/><path class="cls-1" d="M163.33,40H152.45V68.26h-6.57V40H135V34.21h28.34Z"/><path class="cls-1" d="M190.09,68.5A15.57,15.57,0,0,1,183.3,67a16.59,16.59,0,0,1-5.22-3.89,17.34,17.34,0,0,1-3.38-5.54,17.56,17.56,0,0,1-1.2-6.37,17,17,0,0,1,1.27-6.52,17.82,17.82,0,0,1,3.5-5.52,16.62,16.62,0,0,1,5.3-3.81A15.73,15.73,0,0,1,190.23,34,15.06,15.06,0,0,1,197,35.48a16.9,16.9,0,0,1,5.2,4A18.29,18.29,0,0,1,205.53,45a17.5,17.5,0,0,1,1.2,6.33,17.25,17.25,0,0,1-1.25,6.5A17.75,17.75,0,0,1,202,63.3a16.54,16.54,0,0,1-5.28,3.78A15.58,15.58,0,0,1,190.09,68.5Zm-9.88-17.26a13.56,13.56,0,0,0,.67,4.26,11.6,11.6,0,0,0,1.94,3.65,9.78,9.78,0,0,0,3.12,2.54,9.66,9.66,0,0,0,8.44,0,9.75,9.75,0,0,0,3.12-2.62,11.9,11.9,0,0,0,1.92-3.67,13.6,13.6,0,0,0,.64-4.14,13.35,13.35,0,0,0-.69-4.27,11.88,11.88,0,0,0-2-3.65,9.39,9.39,0,0,0-3.11-2.51,9,9,0,0,0-4.15-.94,9.11,9.11,0,0,0-4.27,1,9.5,9.5,0,0,0-3.12,2.59,11.73,11.73,0,0,0-1.89,3.65A13.68,13.68,0,0,0,180.21,51.24Z"/><path class="cls-1" d="M103.71,78.13a26.9,26.9,0,1,1,24.47-15.64A26.77,26.77,0,0,1,103.71,78.13Zm.07-49.38a22.49,22.49,0,1,0,9.37,2.06A22.53,22.53,0,0,0,103.78,28.75Z"/><path class="cls-1" d="M85.31,41.93a20.8,20.8,0,0,0,.63,19.76l14.55-17.08Z"/><path class="cls-1" d="M102.81,30.48a20.82,20.82,0,0,0-17,10.59L108,45Z"/><path class="cls-1" d="M122.48,60.55a20.83,20.83,0,0,0-.62-19.76L107.3,57.87Z"/><path class="cls-1" d="M121.35,40a20.71,20.71,0,0,0-17.57-9.5l7.58,21.22Z"/><path class="cls-1" d="M86.45,62.52a20.83,20.83,0,0,0,17.8,9.5L96.44,50.8Z"/><path class="cls-1" d="M105.22,72A20.81,20.81,0,0,0,122,61.4L99.89,57.5Z"/><path class="cls-1" d="M77.51,93.54a7.1,7.1,0,0,1-2.35.42,3.94,3.94,0,0,1-2.85-1,3.9,3.9,0,0,1-1.06-2.84,3.82,3.82,0,0,1,4.13-3.94,4.7,4.7,0,0,1,1.9.35l-.24.8A3.93,3.93,0,0,0,75.36,87a2.85,2.85,0,0,0-3.07,3.06,2.79,2.79,0,0,0,2.94,3.08,3.23,3.23,0,0,0,1.31-.2V90.66H75v-.79h2.52Z"/><path class="cls-1" d="M81.27,86.35a10.42,10.42,0,0,1,1.89-.16,3.11,3.11,0,0,1,2.21.62,1.88,1.88,0,0,1,.6,1.45,2,2,0,0,1-1.44,1.95v0a1.91,1.91,0,0,1,1.12,1.54,12.16,12.16,0,0,0,.59,2.1h-1a10.86,10.86,0,0,1-.51-1.82c-.22-1.06-.63-1.45-1.52-1.49h-.93v3.31h-1Zm1,3.48h1c1,0,1.72-.58,1.72-1.45S84.27,87,83.23,87a4.38,4.38,0,0,0-1,.09Z"/><path class="cls-1" d="M96.18,90c0,2.63-1.6,4-3.55,4s-3.43-1.56-3.43-3.87,1.51-4,3.55-4S96.18,87.72,96.18,90Zm-5.92.13c0,1.63.88,3.09,2.43,3.09s2.45-1.44,2.45-3.17c0-1.52-.8-3.1-2.44-3.1S90.26,88.43,90.26,90.11Z"/><path class="cls-1" d="M100.7,86.25v4.51c0,1.71.76,2.44,1.78,2.44s1.86-.75,1.86-2.44V86.25h1V90.7c0,2.34-1.23,3.3-2.88,3.3s-2.74-.89-2.74-3.26V86.25Z"/><path class="cls-1" d="M109.3,86.34a11.35,11.35,0,0,1,1.89-.15,3.11,3.11,0,0,1,2.14.64,2,2,0,0,1,.67,1.59,2.22,2.22,0,0,1-.59,1.63,3.82,3.82,0,0,1-3.12.77v3.06h-1Zm1,3.68a3.56,3.56,0,0,0,.81.08c1.19,0,1.92-.58,1.92-1.63s-.72-1.5-1.81-1.5a4.37,4.37,0,0,0-.92.08Z"/><path class="cls-1" d="M121.54,90.3h-3v2.75h3.31v.83h-4.3V86.25h4.13v.82h-3.14v2.42h3Z"/><path class="cls-1" d="M129.73,93.88v-.61l.78-.76c1.88-1.79,2.73-2.74,2.74-3.85a1.31,1.31,0,0,0-1.46-1.44,2.51,2.51,0,0,0-1.56.62l-.32-.7a3.22,3.22,0,0,1,2.08-.75,2.07,2.07,0,0,1,2.25,2.14c0,1.36-1,2.46-2.53,4l-.59.54v0h3.31v.83Z"/></svg>